<svg width="21" height="20" viewBox="0 0 21 20" fill="none" xmlns="http://www.w3.org/2000/svg">
<g clip-path="url(#clip0_3056_3347)">
<path d="M16.1532 3.33333H15.2365C15.0431 2.39284 14.5313 1.54779 13.7875 0.940598C13.0437 0.333408 12.1133 0.0012121 11.1532 0L9.48649 0C8.52632 0.0012121 7.59592 0.333408 6.85212 0.940598C6.10831 1.54779 5.59657 2.39284 5.40316 3.33333H4.48649C3.38183 3.33466 2.32279 3.77407 1.54167 4.55518C0.760559 5.3363 0.321147 6.39534 0.319824 7.5L0.319824 15.8333C0.321147 16.938 0.760559 17.997 1.54167 18.7782C2.32279 19.5593 3.38183 19.9987 4.48649 20H16.1532C17.2578 19.9987 18.3169 19.5593 19.098 18.7782C19.8791 17.997 20.3185 16.938 20.3198 15.8333V7.5C20.3185 6.39534 19.8791 5.3363 19.098 4.55518C18.3169 3.77407 17.2578 3.33466 16.1532 3.33333ZM9.48649 1.66667H11.1532C11.6684 1.6688 12.1703 1.83007 12.5904 2.12841C13.0105 2.42674 13.3281 2.84758 13.4998 3.33333H7.13982C7.31156 2.84758 7.62918 2.42674 8.04924 2.12841C8.4693 1.83007 8.97127 1.6688 9.48649 1.66667ZM4.48649 5H16.1532C16.8162 5 17.4521 5.26339 17.9209 5.73223C18.3898 6.20107 18.6532 6.83696 18.6532 7.5V10H1.98649V7.5C1.98649 6.83696 2.24988 6.20107 2.71872 5.73223C3.18756 5.26339 3.82345 5 4.48649 5ZM16.1532 18.3333H4.48649C3.82345 18.3333 3.18756 18.0699 2.71872 17.6011C2.24988 17.1323 1.98649 16.4964 1.98649 15.8333V11.6667H9.48649V12.5C9.48649 12.721 9.57429 12.933 9.73057 13.0893C9.88685 13.2455 10.0988 13.3333 10.3198 13.3333C10.5408 13.3333 10.7528 13.2455 10.9091 13.0893C11.0654 12.933 11.1532 12.721 11.1532 12.5V11.6667H18.6532V15.8333C18.6532 16.4964 18.3898 17.1323 17.9209 17.6011C17.4521 18.0699 16.8162 18.3333 16.1532 18.3333Z" fill="#222325"/>
</g>
<defs>
<clipPath id="clip0_3056_3347">
<rect width="20" height="20" fill="white" transform="translate(0.319824)"/>
</clipPath>
</defs>
</svg>
