<?xml version="1.0" encoding="UTF-8"?>
<svg width="75px" height="75px" viewBox="0 0 75 75" version="1.1" xmlns="http://www.w3.org/2000/svg" xmlns:xlink="http://www.w3.org/1999/xlink">
    <title>eloque/ elements/ icons/ clock-10min</title>
    <defs>
        <path d="M28.125,0 C20.6130952,0 13.5502646,2.92651848 8.23809524,8.23790152 C2.92592593,13.5499459 0,20.6132719 0,28.1256614 C0,35.6367281 2.92592593,42.7000541 8.23809524,48.0127598 C13.5502646,53.3241429 20.6130952,56.25 28.125,56.25 C35.6375661,56.25 42.7003968,53.3241429 48.0125661,48.0127598 C53.3247354,42.7000541 56.25,35.6367281 56.25,28.1256614 C56.25,20.6132719 53.3247354,13.5499459 48.0125661,8.23790152 C42.7003968,2.92585712 35.6382275,0 28.125,0 Z M38.4062745,9.75 L39.75,10.5152432 L36.5951355,15.75 L35.25,14.9840717 L38.4062745,9.75 Z M45.3632366,45.3603177 C40.7590862,49.9641452 34.6383603,52.5 28.1267098,52.5 C21.615723,52.5 15.4943335,49.9641452 10.8901831,45.3603177 C6.28603268,40.7564903 3.75,34.6355301 3.75,28.1256637 C3.75,21.6144699 6.28603268,15.4941734 10.8901831,10.8896823 C15.4943335,6.28519113 21.615723,3.75 28.1267098,3.75 C28.1751606,3.75 28.2236114,3.75132733 28.2713984,3.75265465 L28.2713984,8.88674853 L28.2713984,28.125 L49.5262185,16.7573268 C49.4970623,16.3083523 49.2457524,15.9233347 48.7722889,15.6022739 C51.2325719,19.2932071 52.4751423,23.4674491 52.5,28.125 C52.5,34.6355301 49.967387,40.7564903 45.3632366,45.3603177 Z" id="path-1"></path>
    </defs>
    <g id="UI-designs-1.1" stroke="none" stroke-width="1" fill="none" fill-rule="evenodd">
        <g id="2.-Onboarding-Quiz-2" transform="translate(-683, -414)">
            <g id="Group" transform="translate(345, 362)">
                <g id="Group-2-Copy" transform="translate(338, 52)">
                    <g id="eloque/-variables/-colors/-black" transform="translate(9.375, 9.375)">
                        <mask id="mask-2" fill="white">
                            <use xlink:href="#path-1"></use>
                        </mask>
                        <use id="Mask" fill="#FFFFFF" fill-rule="nonzero" xlink:href="#path-1"></use>
                        <g mask="url(#mask-2)" fill="#000000" id="Rectangle">
                            <g transform="translate(-9.375, -9.375)">
                                <rect x="0" y="0" width="75" height="75"></rect>
                            </g>
                        </g>
                    </g>
                </g>
            </g>
        </g>
    </g>
</svg>