<?xml version="1.0" encoding="UTF-8"?>
<svg width="75px" height="75px" viewBox="0 0 75 75" version="1.1" xmlns="http://www.w3.org/2000/svg" xmlns:xlink="http://www.w3.org/1999/xlink">
    <title>eloque/ elements/ icons/ clock-15min</title>
    <defs>
        <path d="M28.125,0 C20.6130952,0 13.5502646,2.9265873 8.23809524,8.23809524 C2.92592593,13.5502646 0,20.6137566 0,28.1263228 C0,35.6375661 2.92592593,42.7010582 8.23809524,48.0138889 C13.5502646,53.3253968 20.6130952,56.2513228 28.125,56.2513228 C35.6375661,56.2513228 42.7003968,53.3253968 48.0125661,48.0138889 C53.3247354,42.7010582 56.25,35.6375661 56.25,28.1263228 C56.25,20.6137566 53.3247354,13.5502646 48.0125661,8.23809524 C42.7003968,2.92592593 35.6382275,0 28.125,0 Z M45.5800265,17.2969577 L46.3022487,18.5687831 L41.2083333,21.4589947 L40.4867725,20.1871693 L45.5800265,17.2969577 Z M37.7883598,9.93849206 L39.0489418,10.6772487 L36.0892857,15.7308201 L34.827381,14.9914021 L37.7883598,9.93849206 Z M45.3009259,45.3015873 C40.712963,49.8895503 34.6137566,52.4166667 28.125,52.4166667 C21.6369048,52.4166667 15.537037,49.8895503 10.9490741,45.3015873 C6.36111111,40.7136243 3.83399471,34.6137566 3.83399471,28.1263228 C3.83399471,21.6375661 6.36111111,15.5383598 10.9490741,10.9497354 C15.537037,6.36111111 21.6369048,3.83465608 28.125,3.83465608 C28.1732804,3.83465608 28.2215608,3.83597884 28.2691799,3.83730159 L28.2691799,8.9537037 L28.2691799,28.1256614 L52.4160053,28.1256614 C52.4160053,34.6137566 49.8888889,40.7136243 45.3009259,45.3015873 Z" id="path-1"></path>
    </defs>
    <g id="UI-designs-1.1" stroke="none" stroke-width="1" fill="none" fill-rule="evenodd">
        <g id="2.-Onboarding-Quiz-2" transform="translate(-948, -414)">
            <g id="Group" transform="translate(345, 362)">
                <g id="Group-2-Copy-2" transform="translate(603, 52)">
                    <g id="eloque/-variables/-colors/-black" transform="translate(9.375, 9.375)">
                        <mask id="mask-2" fill="white">
                            <use xlink:href="#path-1"></use>
                        </mask>
                        <use id="Mask" fill="#FFFFFF" fill-rule="nonzero" xlink:href="#path-1"></use>
                        <g mask="url(#mask-2)" fill="#000000" id="Rectangle">
                            <g transform="translate(-9.375, -9.375)">
                                <rect x="0" y="0" width="75" height="75"></rect>
                            </g>
                        </g>
                    </g>
                </g>
            </g>
        </g>
    </g>
</svg>