<?xml version="1.0" encoding="UTF-8"?>
<svg width="75px" height="75px" viewBox="0 0 75 75" version="1.1" xmlns="http://www.w3.org/2000/svg" xmlns:xlink="http://www.w3.org/1999/xlink">
    <title>eloque/ elements/ icons/ clock-5min</title>
    <defs>
        <path d="M28.125,-3.55271368e-15 C35.6382275,-3.55271368e-15 42.7003968,2.92585712 48.0125661,8.23790152 C53.3247354,13.5499459 56.25,20.6132719 56.25,28.1256614 C56.25,35.6367281 53.3247354,42.7000541 48.0125661,48.0127598 C42.7003968,53.3241429 35.6375661,56.25 28.125,56.25 C20.6130952,56.25 13.5502646,53.3241429 8.23809524,48.0127598 C2.92592593,42.7000541 0,35.6367281 0,28.1256614 C0,20.6132719 2.92592593,13.5499459 8.23809524,8.23790152 C13.5502646,2.92651848 20.6130952,-3.55271368e-15 28.125,-3.55271368e-15 Z M28.199303,3.75082958 L28.1267098,3.75 C21.615723,3.75 15.4943335,6.28519113 10.8901831,10.8896823 C6.28603268,15.4941734 3.75,21.6144699 3.75,28.1256637 C3.75,34.6355301 6.28603268,40.7564903 10.8901831,45.3603177 C15.4943335,49.9641452 21.615723,52.5 28.1267098,52.5 C34.6383603,52.5 40.7590862,49.9641452 45.3632366,45.3603177 C49.967387,40.7564903 52.5,34.6355301 52.5,28.125 C52.4751423,23.4174319 51.2325719,19.2181813 48.7722889,15.5272482 C47.923686,14.2541684 47.1764878,13.2647032 46.2236972,12.19081 C44.9705348,10.7783666 42.8985913,9.02149229 40.0078666,6.92018696 L28.2713984,28.125 L28.2713984,3.75265465 C28.2236114,3.75132733 28.1751606,3.75 28.1267098,3.75 Z" id="path-1"></path>
    </defs>
    <g id="UI-designs-1.1" stroke="none" stroke-width="1" fill="none" fill-rule="evenodd">
        <g id="2.-Onboarding-Quiz-2" transform="translate(-418, -414)">
            <g id="Group" transform="translate(345, 362)">
                <g id="Group-2" transform="translate(73, 52)">
                    <g id="eloque/-variables/-colors/-black" transform="translate(9.375, 9.375)">
                        <mask id="mask-2" fill="white">
                            <use xlink:href="#path-1"></use>
                        </mask>
                        <use id="Mask" fill="#FFFFFF" fill-rule="nonzero" xlink:href="#path-1"></use>
                        <g mask="url(#mask-2)" fill="#000000" id="Rectangle">
                            <g transform="translate(-9.375, -9.375)">
                                <rect x="0" y="0" width="131.25" height="75"></rect>
                            </g>
                        </g>
                    </g>
                </g>
            </g>
        </g>
    </g>
</svg>