<?xml version="1.0" encoding="UTF-8"?>
<svg width="235px" height="279px" viewBox="0 0 235 279" version="1.1" xmlns="http://www.w3.org/2000/svg" xmlns:xlink="http://www.w3.org/1999/xlink">
    <title>girl</title>
    <g id="Symbols" stroke="none" stroke-width="1" fill="none" fill-rule="evenodd">
        <g id="eloque/elements/art-work/girl" transform="translate(1, 2)">
            <g id="girl" transform="translate(0.7714, 0.175)">
                <path d="M93.7285714,193.325028 C50.7285714,200.325028 24.0619048,209.158362 13.7285714,219.825028 C3.3952381,230.491695 -1.1047619,248.825588 0.228571429,274.826706 L230.729117,274.826706 C232.005168,247.315513 227.171652,228.98162 216.228571,219.825028 C205.28549,210.668436 177.452157,201.668436 132.728571,192.825028 L93.7285714,193.325028 Z" id="Path-36" stroke="#242C45" stroke-width="3" fill="#FFEDC7"></path>
                <path d="M91.7285714,230.825028 C81.2285714,216.825028 77.0201731,195.441381 72.7285714,196.246361 C37.5742075,202.840303 22.9376694,210.318863 13.7285714,219.825028 C3.3952381,230.491695 -1.1047619,248.825588 0.228571429,274.826706 L230.729117,274.826706 C232.005168,247.315513 227.171652,228.98162 216.228571,219.825028 C206.6935,211.846585 195.410537,206.565696 160.228571,198.825028 C155.033376,197.681992 150.228571,215.325028 140.228571,230.825028 C130.228571,246.325028 102.228571,244.825028 91.7285714,230.825028 Z" id="Path-36" stroke="#242C45" stroke-width="3" fill="#50E3C2"></path>
                <path d="M18.2285714,190.825028 C25.7285714,174.325028 35.7285714,170.293789 38.2285714,140.68472 C40.7285714,111.075652 42.2285714,62.486578 49.7285714,44.8250283 C57.2285714,27.1634785 71.7285714,11.5779738 88.2285714,4.82502827 C104.728571,-1.92791722 134.728571,-2.17497173 150.728571,7.82502827 C166.728571,17.8250283 178.728571,30.3250283 183.728571,48.3250283 C188.728571,66.3250283 196.728571,91.8250283 193.228571,135.825028 C192.392208,146.339311 189.596437,167.619131 191.228571,179.825028 C192.584751,189.967198 201.200372,196.279998 201.228596,206.825028 C201.244918,212.937806 193.228571,206.825028 192.228571,216.325028 C190.746844,230.401439 194.228571,247.325028 191.228571,256.325028 C188.228571,265.325028 171.654297,266.083694 166.728571,257.325028 C162.294992,249.441471 170.88655,213.272673 169.228571,207.825028 C167.794463,203.112959 162.814312,201.648323 157.728571,198.825028 C154.539673,197.054745 145.728571,195.325028 143.728571,194.825028 C141.728571,194.325028 111.399272,190.193308 95.2285714,192.325028 C88.4530689,193.218216 82.6262553,194.85651 76.2285714,196.825028 C61.4003775,201.387549 80.2341538,243.449679 58.2285714,244.825028 C34.2285714,246.325028 49.7285714,198.825028 43.7285714,200.825028 C29.1836057,205.67335 40.7285714,199.325028 29.7285714,206.325028 C14.0879103,216.278176 10.7285714,207.325028 18.2285714,190.825028 Z" id="Path-24" stroke="#242C45" stroke-width="3" fill="#313C5C"></path>
                <path d="M108.728571,73.20595 C114.864679,77.0879324 158.228571,74.92217 161.228571,68.400534 C163.228571,64.0527767 154.561905,58.3320433 135.228571,51.238334 C113.471167,63.295423 104.637833,70.6179617 108.728571,73.20595 Z" id="Path-37" fill="#FFEAC7"></path>
                <path d="M135.228571,198.398098 C135.228571,184.365835 135.228571,169.508145 135.228571,153.825028 L99.2285714,155.416924 L99.2285714,155.416924 C99.2285714,172.515059 99.2285714,186.842117 99.2285714,198.398098" id="Path" stroke="#242C45" stroke-width="3" fill="#FFEDC7" stroke-linecap="round"></path>
                <path d="M133.166729,179.623754 C133.166729,179.623754 133.166729,175.102893 133.166729,166.825028 L101.188249,166.825028 C101.188249,175.357512 101.188249,179.623754 101.188249,179.623754 C112.439937,187.89212 123.09943,187.89212 133.166729,179.623754 Z" id="Path" fill="#313C5C" opacity="0.496773098"></path>
                <path d="M117.939217,69.150674 C106.419955,67.6070076 87.3251997,61.6651257 60.6549523,51.3250283 L60.6549523,51.3250283 C60.0864445,81.043123 60.0864445,101.957754 60.6549523,114.068921 C64.1549523,188.630935 168.154952,198.334211 175.164762,115.090318 C176.627197,97.7233998 175.164762,71.3782658 175.164762,61.8250283 C169.073421,64.0190593 163.133903,65.8728306 157.346208,67.3863423" id="Path-20" stroke="#242C45" stroke-width="3" fill="#FFEAC7"></path>
                <path d="M109.86299,120.325028 C113.804321,124.586581 121.33123,125.325028 125.559681,120.325028" id="Path-21" stroke="#242C45" stroke-width="3" stroke-linecap="round"></path>
                <path d="M135.451675,86.9691438 C135.346497,86.7435876 141.03732,95.3982943 152.133722,88.8839827" id="Path-22" stroke="#313C5C" stroke-width="3" stroke-linecap="round" transform="translate(143.792, 89.1409) rotate(200) translate(-143.792, -89.1409)"></path>
                <path d="M84.3681027,87.1508643 C84.2629241,86.9253081 89.953747,95.5800148 101.05015,89.0657032" id="Path-22" stroke="#313C5C" stroke-width="3" stroke-linecap="round" transform="translate(92.7084, 89.3226) scale(-1, 1) rotate(205) translate(-92.7084, -89.3226)"></path>
                <circle id="Oval-10" fill="#313C5C" cx="96.2285714" cy="100.825028" r="4"></circle>
                <path d="M189.228571,90.8250283 L189.228571,122.32906 C180.561905,119.659706 176.228571,114.158362 176.228571,105.825028 C176.228571,97.4916949 180.561905,92.4916949 189.228571,90.8250283 Z" id="Path-25" stroke="#242C45" stroke-width="3" fill="#FFEAC7" transform="translate(182.7286, 106.577) scale(-1, 1) translate(-182.7286, -106.577)"></path>
                <path d="M102.69765,135.853719 C105.19765,147.353719 125.19765,157.853719 132.69765,133.853719 C132.69765,133.853719 102.69765,135.853719 102.69765,135.853719 Z" id="Path-22" stroke="#313C5C" stroke-width="3" fill="#FFFFFF" stroke-linecap="round" stroke-linejoin="round" transform="translate(117.6977, 141.1021) rotate(4) translate(-117.6977, -141.1021)"></path>
                <circle id="Oval-11" fill="#EDC9BC" cx="148.728571" cy="126.325028" r="6.5"></circle>
                <circle id="Oval-11" fill="#EDC9BC" cx="87.2285714" cy="126.325028" r="6.5"></circle>
                <circle id="Oval-10" fill="#313C5C" cx="139.228571" cy="100.825028" r="4"></circle>
                <path d="M59.7285714,49.3250283 C56.2285714,76.3250283 21.7285714,83.3250283 48.7285714,85.8250283 C75.7285714,88.3250283 76.3001905,69.0988096 98.7285714,72.3250283 C113.680825,74.4758407 116.627501,74.3185374 136.228571,49.3250283 C136.378523,49.8891437 177.728571,93.3250283 176.228571,72.3250283 C174.728571,51.3250283 172.728571,39.8250283 162.228571,26.8250283 C151.728571,13.8250283 136.228571,6.82502827 103.228571,9.82502827 C81.2285714,11.8250283 66.7285714,24.9916949 59.7285714,49.3250283 Z" id="Path-35" stroke="#242C45" stroke-width="3" fill="#272F47"></path>
                <path d="M60.2285714,90.8250283 L60.2285714,122.32906 C51.5619048,119.659706 47.2285714,114.158362 47.2285714,105.825028 C47.2285714,97.4916949 51.5619048,92.4916949 60.2285714,90.8250283 Z" id="Path-25" stroke="#242C45" stroke-width="3" fill="#FFEAC7"></path>
            </g>
        </g>
    </g>
</svg>