<?xml version="1.0" encoding="UTF-8"?>
<svg width="110px" height="120px" viewBox="0 0 110 120" version="1.1" xmlns="http://www.w3.org/2000/svg" xmlns:xlink="http://www.w3.org/1999/xlink">
    <title>main-thumbnail/ielts-interview</title>
    <defs>
        <linearGradient x1="49.999825%" y1="0%" x2="49.999825%" y2="100%" id="linearGradient-1">
            <stop stop-color="#FDA596" offset="0%"></stop>
            <stop stop-color="#FFB3A6" offset="100%"></stop>
        </linearGradient>
        <linearGradient x1="49.9998639%" y1="6.20646061e-06%" x2="49.9998639%" y2="100.000056%" id="linearGradient-2">
            <stop stop-color="#FEA89A" offset="0%"></stop>
            <stop stop-color="#FFB7AB" offset="100%"></stop>
        </linearGradient>
    </defs>
    <g id="UI-designs-1.1" stroke="none" stroke-width="1" fill="none" fill-rule="evenodd">
        <g id="13.-home" transform="translate(-710, -399)" fill-rule="nonzero">
            <g id="Rectangle-Copy-3" transform="translate(684, 387)">
                <g id="main-thumbnail/ielts-interview" transform="translate(26, 12)">
                    <path d="M31,113 L32.8175496,99 L38.9769256,99 C39.3000455,99 36.1496263,108.333333 34.5340266,113 L31,113 Z" id="Path" fill="#B6C3E8"></path>
                    <path d="M43,107 L43.9087116,100 L46.9884767,100 C47.1499285,100 45.5748647,104.666725 44.7670605,107 L43,107 Z" id="Path" fill="#B6C3E8"></path>
                    <path d="M79,107 L78.3184182,100 L76.0086688,100 C75.8873813,100 77.0688278,104.666725 77.6746941,107 L79,107 Z" id="Path" fill="#B6C3E8"></path>
                    <path d="M89,113 L87.0301044,99 C85.1405805,99 81.3402579,99.2709677 81.0219228,99.2709677 C80.7037847,99.2709677 83.9279128,108.483871 85.5191945,113 L89,113 Z" id="Path" fill="#B6C3E8"></path>
                    <path d="M27.1592095,48.1942115 C20.5624047,47.0246694 15.4926137,51.4225132 13.7823371,53.7678105 C13.0799056,54.8337385 11.7483223,59.1584858 12.0415136,67.9300515 C12.4080028,78.8945085 25.418386,97.7168264 28.4419215,99.2701245 C31.4654571,100.823423 88.7211413,99.6314034 94.4017232,98.1694758 C100.082305,96.7075482 103.938687,83.4630323 107.878446,73.6863914 C111.030252,65.8650787 109.985758,57.8184464 109.069535,54.772703 C107.176069,52.5799943 102.069592,48.4500489 96.7921487,49.4732154 C91.5147049,50.4965648 84.1482729,59.9504851 81.1247374,64.5493439 L43.4679768,64.5493439 C39.4365962,64.5493439 35.4052155,49.6561391 27.1592095,48.1942115 Z" id="Path" fill="#D1DBF8"></path>
                    <path d="M27.9805902,33.7403096 C25.129578,39.014473 29.1685119,59.3176215 31.5443554,68.8098337 L31.8184912,70 L89.0214913,70 C90.666306,65.0554718 94.2300712,53.2252302 95.3266143,45.4604896 C96.6972933,35.7545639 96.8800504,32.5499602 86.828405,29.7114347 C76.7767597,26.8729093 31.5443554,27.1476053 27.9805902,33.7403096 Z" id="Path" fill="#D8E0F8"></path>
                    <path d="M24.9895693,54.6399377 C20.9227242,51.0195061 15.5906908,51.5614847 13.8238282,53.644319 C12.8252724,54.8205973 10.828161,62.3335359 12.9160502,71.6561474 C15.0039395,80.9787588 24.9895693,96.3655932 27.712903,98.0852982 C30.4362368,99.8050032 37.4261268,99.8050032 49.590351,99.9860248 C61.7545752,100.167046 90.7951173,98.5378522 93.1553399,98.0852982 C95.5155625,97.6327443 98.0573407,95.9981194 100.508341,91.0200259 C102.959342,86.0419324 109.140583,71.4751258 109.776027,64.4152841 C110.411472,57.3554425 110.139139,53.4634785 102.876915,52.6488814 C95.6146919,51.8342842 92.4374691,60.0707662 91.7112468,64.4152841 C90.9850244,68.7598021 90.068895,79.2536231 87.8902279,81.7879253 C85.7115609,84.3222274 59.0312415,86.2283846 45.4145726,84.5086796 C31.7979037,82.7889746 32.978015,81.5218235 32.5241261,77.448838 C32.0702371,73.3758524 30.0731257,59.1654773 24.9895693,54.6399377 Z" id="Path" fill="#EBF0FF"></path>
                    <path d="M56,77.6538462 L45.0993184,79 C44.6171449,76.3748077 46.0015315,74.6944231 46.8690441,74.0898077 L52.6389565,74 L56,77.6538462 Z" id="Path" fill="#FFAC9E"></path>
                    <path d="M46,74.8524726 C44.683871,76.09994 44.5376344,78.3686794 44.6290323,79.347024 C44.0806452,79.6222007 43.1666667,79.347024 40.9731183,79.347024 C38.7795699,79.347024 34.0268817,79.8973773 33.1129032,79.9891028 C32.1989247,80.0808283 29,79.6222007 29,77.5125133 C29,75.4028259 30.3709677,73.1096874 32.655914,72.5593342 C34.9408602,72.0089809 37.5913978,73.0179619 38.7795699,72.2841575 C39.7301075,71.6971141 41.2473118,71.1834511 41.8870968,71 L46,74.8524726 Z" id="Path" fill="#021952"></path>
                    <path d="M87.4495017,105.956991 C87.0787099,104.529196 84.3287324,100.477452 83,98.6301485 L90.4158362,96 C92.2697952,100.790628 95.6069215,104.360115 95.9777133,104.829784 C96.3485051,105.299454 91.9917014,109.432544 90.4158362,108.962875 C88.839971,108.493206 87.9129915,107.741734 87.4495017,105.956991 Z" id="Path" fill="#FFAFA1"></path>
                    <path d="M90.8368269,107.651665 C89.4377191,108.012935 88.0448705,106.47754 87.5231505,105.664685 C86.9340525,106.025593 86.725475,108.464702 86.6947314,109.639188 C86.3880323,109.849989 85.8294937,110.506234 86.0504055,111.445534 C86.3265452,112.619659 96.543714,119.483774 100.685809,119.935361 C104.827905,120.386948 110.350699,118.399967 109.982513,116.232351 C109.614326,114.064736 107.405209,112.709976 104.643812,111.445534 C101.882415,110.181092 97.4641797,104.49056 96.1755277,104.038973 C94.8868758,103.587387 92.5857117,107.200079 90.8368269,107.651665 Z" id="Path" fill="#021952"></path>
                    <path d="M75.4529915,87.3861874 C73.4222222,84.7517486 72.7264957,80.251249 72.6324786,78.3303041 C72.4905128,76.9399058 70.8183248,76.3484377 70,76.226412 L81.3760684,69 C83.4820513,70.2440405 84.7606838,73.8480992 85.1367521,75.4946234 L92,96.6250179 C88.6905983,99.0399201 84.9801197,99.1557257 83.5384615,98.9118571 C81.6895214,96.16765 77.4837607,90.0206262 75.4529915,87.3861874 Z" id="Path" fill="#092F75"></path>
                    <path d="M50.0365014,59.6666667 C53.4438971,61.4443871 60.2950131,65 60.4410417,65 L87,62.5913978 L79.4247645,57 C71.3019216,57.5448602 54.5086284,58.6688172 52.3181988,58.8064516 C50.1277693,58.944086 49.8844491,59.4373333 50.0365014,59.6666667 Z" id="Path" fill="#CABDBD"></path>
                    <path d="M45.4367369,26.5471732 C47.0245009,24.8733165 53.7364125,24.1515568 56.8938978,24 L66.185926,24 C66.9076369,26.0013504 68.7479998,30.9137559 70.3357638,34.5525749 C72.3204689,39.1010985 72.5911104,43.0128288 70.3357638,45.0141792 C68.0804172,47.0155297 68.0804172,55.4757836 68.3510588,56.0216065 C68.6217004,56.5674293 88.0176815,60.5701301 91.71645,62.7534215 C95.4152185,64.9367128 98.7531315,71.5775573 97.8509928,73.3969668 C96.9488542,75.2163763 92.7088025,79.4919885 88.0176815,78.2184019 C83.3265605,76.9448152 82.8754911,79.4919885 78.9962949,80.6746046 C75.8929379,81.6206976 73.4331667,80.2803386 72.5911104,79.4919885 C71.7791857,76.3989924 62.3969436,78.9461657 54.3679096,78.2184019 C46.3388755,77.4906381 40.655402,69.394266 41.0162575,65.0276833 C41.3049418,61.5344171 44.0835289,37.9184824 45.4367369,26.5471732 Z" id="Path" fill="#58CC06"></path>
                    <path d="M49.9607709,60.2758621 C47.91189,59.4482759 45.1623272,57.862069 44.0437442,57.1724138 C43.5491867,54.2758621 47.370173,52.5172414 49.3425741,52 C49.548522,52.5172414 50.4376656,53.862069 52.3452444,55.1034483 C54.2528232,56.3448276 58.9097882,57.9194828 61,58.5517241 L60.2934893,62 C57.7028914,61.7701724 52.0096519,61.1034483 49.9607709,60.2758621 Z" id="Path" fill="url(#linearGradient-1)"></path>
                    <path d="M44.5837465,26 C48.7224198,26.0738095 49.8156609,32.9810893 49.8447719,36.4255952 C50.4585582,41.3313452 48.003413,47.4970238 49.2309856,49.0654762 C50.2130436,50.3202381 50.0494258,51.679625 49.8447719,52.202381 C46.4075686,51.9071429 44.5546355,55.2778393 44.057644,57 C38.270516,55.0625 38.270516,40.485119 40.0241912,33.75 C41.4271313,28.3619048 43.6485115,26.3382321 44.5837465,26 Z" id="Path" fill="#58CC06"></path>
                    <path d="M56,22.8068533 L58,15 L64,19.1757672 L63.3333333,24.3500649 C63.1110476,25.3182941 62.0952381,27.2004675 59.8095238,26.9826024 C57.5238095,26.7647372 56.3175238,24.108053 56,22.8068533 Z" id="Path" fill="#FFAD9F"></path>
                    <path d="M69.970589,10.4440023 C70.2599414,8.37343403 68.3429819,5.2973192 67.3483331,4.01810068 C67.3483331,3.92885204 66.6430367,4.12519904 63.8218511,5.6245761 C60.2953691,7.49879742 58.1252263,13.6569532 58.0348037,14.1031964 C57.9443811,14.5494395 57.8539584,17.1376499 60.2049465,19.2796528 C62.5559345,21.4216201 64.1835416,21.0646255 65.8111487,20.7968796 C67.4387558,20.5291337 69.5184759,16.7806554 69.3376307,14.4601909 C69.1567855,12.1397264 69.6088985,13.0322127 69.970589,10.4440023 Z" id="Path" fill="url(#linearGradient-2)"></path>
                    <path d="M64.2356028,45.040395 L60.0209148,65.0958772 C59.8994219,65.6735112 60.3368332,65.9392915 60.5706567,66 L86.8666445,63.1091197 C88.1493756,59.2543115 90.9164099,50.5872716 91.722698,46.7568552 C92.5289862,42.9264387 91.3866225,42.7519018 90.7148379,43.1432548 C83.8734831,43.4746219 69.586424,44.1550629 67.1675596,44.2273349 C64.7486952,44.2996069 64.2050005,44.7995485 64.2356028,45.040395 Z" id="Path" fill="#192338"></path>
                    <path d="M62.978382,7.55720342 C64.2147103,6.67680231 66.0388398,5.11165088 66.7964545,4.43911614 C67.7660631,6.27346855 69.6143737,10.198957 69.2507478,11.5929255 C68.7962154,13.335386 68.7962154,13.6105113 68.6144024,16.3617648 C68.468952,18.5628226 66.0690208,20.5804085 64.8872364,21.3140761 L62.978382,25.165831 L70.1598127,27 C70.9477901,26.3274102 71.6688603,24.8721806 71.8870359,22.5974442 C72.1597554,19.753932 71.8870359,13.7939282 71.6143164,12.8768437 C71.341597,11.9597593 70.4325321,7.55720342 69.7052802,5.54016779 C68.9780283,3.52313215 66.5235532,0.862492112 64.7054235,0.312241414 C62.8872937,-0.238009283 59.7055667,-0.137890277 56.9783721,1.23773557 C54.2513593,2.61336599 52.3421413,7.65663373 51.5239829,12.9757238 C50.8694562,17.2309959 46.0695938,23.1559486 47.1606534,24.4393167 L54.5240788,24.0724829 L56.7056527,15.7192554 L54.8875229,23.9807744 L55.7056813,23.9807744 C55.6755004,23.0941371 57.887437,20.9543956 57.887437,18.111397 C57.887437,15.1968474 57.4330864,13.793378 59.0694031,11.133833 C60.7057199,8.47428792 61.4329718,8.65770482 62.978382,7.55720342 Z" id="Path" fill="#24314B"></path>
                    <path d="M13.7387001,105 C13.133098,103.458534 12.8115385,96.0034075 13.1173433,94.3258359 C13.4231649,92.6480773 14.6159913,93.1399631 15.1741937,93.595579 C14.8878159,92.5142156 14.4896656,90.1682701 15.1881039,89.4367045 C15.8865423,88.704952 16.6925226,89.7137759 17.00821,90.3094232 C17.1750649,89.0016539 17.822973,86.312641 19.0797999,86.0198652 C20.3366268,85.7269025 19.7854641,88.7468305 19.3527582,90.2931578 C19.543643,89.9700949 20.0873598,89.4587655 20.7356571,89.9988864 C21.3790468,90.5352681 20.1635106,93.1741763 19.4608924,94.4544628 C19.6661612,94.0934474 20.2691064,93.4703174 20.6144927,94.126352 C22.6416274,97.977681 16.036864,104.063155 15.5678088,105 L13.7387001,105 Z" id="Path" fill="#A1B2DF"></path>
                    <path d="M13,105 C13.2119549,103.253421 13.9356115,99.4260397 15.1346354,98.0891517 C16.3336592,96.7520841 17.2692527,97.8934701 17.5871759,98.6310945 C17.8747812,97.4868334 18.7227091,95.1348809 19.8125665,94.8820581 C20.9026046,94.6290556 21.1752496,96.0112253 21.1752496,96.7339354 C22.0381739,95.6498702 24.1181538,93.5990769 25.5352214,94.0687846 C26.952289,94.538672 24.7933523,96.9447109 23.5369085,98.0891517 C23.9002546,97.908564 24.7178283,97.7644532 25.0809937,98.6310945 C25.4409068,99.4896497 22.8300912,101.158064 21.4417516,101.90665 C21.8338256,101.703241 22.5892457,101.520857 22.764866,102.289208 C22.9464486,103.084153 21.0540138,104.42751 20.0852115,105 L13,105 Z" id="Path" fill="#8094CC"></path>
                    <path d="M13,105 C12.7880634,103.253421 12.0644074,99.4260397 10.8653847,98.0891517 C9.66636205,96.7520841 8.73075143,97.8934701 8.41282847,98.6310945 C8.12518733,97.4868334 7.27740482,95.1348809 6.18736776,94.8820581 C5.09734877,94.6290556 4.82484854,96.0112253 4.82484854,96.7339354 C3.96192512,95.6498702 1.88180269,93.5990769 0.464767158,94.0687846 C-0.952259336,94.538672 1.20658679,96.9447109 2.46313772,98.0891517 C2.09979203,97.908564 1.28228411,97.7644532 0.918943845,98.6310945 C0.559045516,99.4896497 3.16986405,101.158064 4.55825652,101.90665 C4.16611058,101.703241 3.41079964,101.520857 3.23523375,102.289208 C3.0535609,103.084153 4.94595775,104.42751 5.91486753,105 L13,105 Z" id="Path" fill="#A1B2DF"></path>
                    <path d="M13.8596282,105 C14.5426223,103.350782 15.2550894,96.7019435 14.910193,94.907104 C14.5652965,93.1122646 13.2200199,93.6383762 12.5904871,94.1259247 C12.9134629,92.96903 13.3624958,90.4594867 12.5747869,89.6766547 C11.7870955,88.8938226 10.878113,89.9730401 10.5220898,90.610434 C10.3339151,89.2111423 9.60318949,86.3345145 8.18577254,86.0212348 C6.76835559,85.7079551 7.3898806,88.9386293 7.87781365,90.5929887 C7.66261916,90.2472058 7.04945241,89.7003435 6.31835887,90.2782399 C5.59257467,90.8519128 6.96355685,93.675103 7.75604942,95.0448296 C7.52448886,94.6584635 6.84436843,93.9918718 6.45494719,94.6937212 C4.16870942,98.8139189 11.2157551,103.996991 11.7447435,104.999265 L13.8596282,105 Z" id="Path" fill="#8094CC"></path>
                    <path d="M20.9886897,105 L5.1811101,105 C4.49655273,108.742701 5.9166926,111.892823 6.71232996,113 L19.1422535,113 C20.7996746,111.577736 21.0637583,107.074212 20.9886897,105 Z" id="Path" fill="#E0E9FF"></path>
                </g>
            </g>
        </g>
    </g>
</svg>