<?xml version="1.0" encoding="UTF-8"?>
<svg width="154px" height="117px" viewBox="0 0 154 117" version="1.1" xmlns="http://www.w3.org/2000/svg" xmlns:xlink="http://www.w3.org/1999/xlink">
    <title>main-thumbnail/job-iterview</title>
    <g id="UI-designs-1.1" stroke="none" stroke-width="1" fill="none" fill-rule="evenodd">
        <g id="13.-home" transform="translate(-273, -409)" fill-rule="nonzero">
            <g id="Rectangle" transform="translate(265, 387)">
                <g id="main-thumbnail/job-iterview" transform="translate(8, 22)">
                    <path d="M142.485901,106.342513 C137.440187,110.1844 131.292919,114.076182 125.249152,115.911197 C123.506874,116.455942 121.709008,116.80368 119.889236,116.947896 C118.187912,117.084643 116.475662,116.951804 114.815799,116.554294 C110.453936,115.469537 106.408124,113.569855 102.493538,111.350468 C101.214551,110.624223 99.9503501,109.864716 98.6935423,109.088577 C96.6419884,107.820884 94.6107652,106.508839 92.5739972,105.22821 C92.2690365,105.034175 91.9659241,104.843837 91.6609633,104.655346 L91.6591151,104.655346 C91.1674815,104.346738 90.6746157,104.042442 90.1805177,103.742458 C90.0936501,103.688868 90.0067825,103.637125 89.9180667,103.583535 C88.9846922,103.018062 88.0353094,102.465525 87.0699184,101.925924 C86.9516306,101.861246 86.8333428,101.794719 86.715055,101.730041 C84.8472258,100.694133 82.9274528,99.7547549 80.9633111,98.9156137 C79.6732256,98.3723165 78.3665244,97.8826098 77.0468762,97.4649731 L77.045028,97.4649731 C76.5404566,97.3060495 76.034037,97.1563655 75.5257691,97.0196172 C74.001693,96.6015171 72.4485605,96.297611 70.879286,96.110426 C68.7168115,95.8486703 66.5296468,95.8660605 64.3716092,96.1621685 C64.2255977,96.182496 64.0814345,96.2028234 63.935423,96.2268468 C58.0949632,97.1619094 52.7646196,100.314512 46.8982843,101.057387 C46.7079149,101.081411 46.5193938,101.103586 46.3290243,101.120218 C46.2477015,101.12761 46.1663786,101.136849 46.0850558,101.142393 C44.3802928,101.288266 42.6646513,101.246125 40.9691087,101.016733 C36.2320523,100.392126 31.6188284,98.4536263 27.4658179,96.0106367 C17.7569777,90.2986239 9.88344652,81.5190146 5.09648742,71.351595 C4.27446413,69.6090981 3.54463465,67.8245957 2.91002074,66.0054763 C1.13568823,60.9610544 0.158557136,55.6709468 0.0138088311,50.3256226 C-0.435315131,31.7795987 10.1052361,13.1725925 26.6544376,4.78474856 C43.2054873,-3.60309543 64.9778341,-0.829322828 78.3258722,12.0564309 C86.4230413,19.8732584 91.1083468,30.4657064 97.2020164,39.9290572 C103.295686,49.39056 111.95657,58.4288823 123.127374,59.8074528 C128.818125,60.5096737 134.773176,59.1514306 140.227353,60.9180706 C143.247388,61.897484 145.823844,63.7713051 147.899425,66.1588562 C149.294841,67.7790362 150.462615,69.582019 151.370432,71.5179105 C152.035742,72.9174306 152.575694,74.3731494 152.983952,75.8679842 C153.05973,76.1433287 153.129963,76.4186733 153.198348,76.6940178 C155.915256,87.7890915 151.573727,99.4200874 142.485901,106.342513 Z" id="Path" fill="#F2F2F2"></path>
                    <rect id="Rectangle" fill="#3F3D56" x="30" y="86" width="27" height="10" rx="5"></rect>
                    <path d="M47,94 L47,101.891446 C45.0022401,102.065216 42.9888077,102.030265 41,101.787293 L41,94 L47,94 Z" id="Path" fill="#3F3D56"></path>
                    <path d="M65,96.0885586 C64.8530598,96.1086053 64.7079795,96.128652 64.5610393,96.1523435 C58.6834295,97.0744917 53.3191805,100.183553 47.4155307,100.916168 C47.2239504,100.93986 47.0342301,100.961729 46.8426497,100.978131 C46.7608096,100.985421 46.6789695,100.994533 46.5971293,101 C45.1556269,99.6167777 43.7141245,98.1442565 42.3600423,96.6188849 C41.625341,95.7933254 40.9148198,94.951364 40.2470694,94.098468 C38.5135465,91.8969759 37.0441441,89.6335213 36.0732225,87.41016 C36.1718026,86.3440401 35.4947615,83.878296 35.171121,81.9902614 L35.169261,81.988439 C35.0316207,81.1956831 34.9572206,80.5068056 35.0260407,80.0639558 C35.4203725,77.5089128 37.5500649,77.8023236 38.204786,75.2983086 C38.7953999,74.8180304 39.4242202,74.3847376 40.0852492,74.0025628 C40.1949893,73.9387778 40.3065895,73.8749929 40.4219097,73.8112079 L47.5271216,69 L50.2427261,71.6097158 L54.375653,75.5826072 L58.8545405,79.885367 L55.0526941,83.6486793 C55.0526941,83.6486793 58.2295701,87.2370386 61.9440056,92.0209101 C62.9409747,93.3057085 63.9769983,94.6780017 65,96.0885586 Z" id="Path" fill="#2F2E41"></path>
                    <path d="M126,94 L126,115.992583 C124.049658,116.521942 122.03709,116.859858 120,117 L120,94 L126,94 Z" id="Path" fill="#3F3D56"></path>
                    <rect id="Rectangle" fill="#3F3D56" x="110" y="91" width="27" height="10" rx="5"></rect>
                    <path d="M90,104 C89.1257842,103.408886 88.2365747,102.831294 87.3323716,102.267225 C87.2215811,102.199614 87.1107905,102.130071 87,102.06246 L87.5954991,101.778493 L89.2019619,101.007727 L89.2175418,101 L89.2348529,101.065679 L90,104 Z" id="Path" fill="#FFB6B6"></path>
                    <path d="M93,105 C92.6954481,104.804236 92.392742,104.6122 92.0881901,104.422029 L92.0863444,104.422029 C91.5953698,104.11067 91.1031647,103.803662 90.6097292,103.501004 C90.522978,103.446936 90.4362269,103.394732 90.34763,103.340664 C89.4155068,102.77015 88.4673968,102.212688 87.5033,101.668276 C87.3851708,101.603021 87.2670415,101.535902 87.1489123,101.470647 C85.2835872,100.425505 83.3663878,99.4777526 81.4048793,98.6311311 C80.1165233,98.0829907 78.8115739,97.5889186 77.4936948,97.167559 L77.491849,97.167559 L76.4563726,95.4168659 L71.795806,87.5322211 L70.7714042,85.8001721 C70.7714042,85.8001721 67.2773543,86.844249 62.3325484,87.8454441 C60.5329236,88.210871 58.5431847,88.5688402 56.45562,88.8708768 C54.2240853,89.1915575 51.8836502,89.4469835 49.5579813,89.5700354 C48.4486741,89.6296969 47.3430585,89.6595277 46.2540548,89.6502056 C43.4392571,89.6315613 40.7352056,89.3649488 38.367084,88.731045 C37.5770948,87.981547 35.1960529,86.9617076 33.4905623,86.0276317 L33.4887165,86.0276317 C32.7725582,85.6361029 32.1782206,85.2613539 31.8662856,84.9276221 C30.0685066,83.0072665 31.6041864,81.5101348 30.0057505,79.4145234 C29.9842347,78.6457248 30.0231177,77.8764134 30.1220339,77.1138254 C30.1386458,76.9870447 30.1552578,76.8583995 30.1755612,76.7278899 L30.6794562,68.0844249 L34.4226756,67.5847595 L40.1187187,66.824075 L46.2891244,66 L46.9683674,71.373267 C46.9683674,71.373267 51.7729041,71.1271632 57.8602502,71.2091978 C67.6372884,71.3434363 80.720099,72.3278516 82.4920372,76.5526341 C82.6581564,76.9497562 82.8242756,77.3506071 82.9903948,77.7514581 C83.3853894,78.709764 83.7766955,79.6730492 84.1643131,80.6413137 C85.5689433,84.1464289 86.9089716,87.6851037 88.1327164,91.0298786 C88.8931732,93.1105746 89.6093316,95.1166938 90.2682601,96.9941677 C90.7980068,98.5043503 91.2889703,99.9324983 91.7374922,101.246917 C92.1472529,102.447605 92.5182525,103.553208 92.8486451,104.545081 C92.9003211,104.69983 92.9501605,104.852714 93,105 Z" id="Path" fill="#2F2E41"></path>
                    <path d="M59.0863244,53.2154069 L47,43.5181808 L54.8634861,36 L60.3495295,44.4889741 L80.6849668,48.2977072 C82.3894004,47.0858891 84.8048803,47.3741542 86.1367749,48.9483299 C87.4686695,50.5225056 87.2340954,52.8118686 85.6073344,54.1154886 C83.9805734,55.4191086 81.5514138,55.2643532 80.1246507,53.7662012 L59.0863244,53.2154069 Z" id="Path" fill="#A0616A"></path>
                    <path d="M36.0983806,30.0639916 C34.7612804,34.416676 47.4956032,44.797882 47.4956032,44.797882 C47.6371013,43.7529108 54.857029,52.7636969 55.3482527,51.9476541 C56.7443009,49.6283533 58.2804294,43.8953535 59.8921233,43.1626262 C60.8138144,42.7435851 55.526345,36.9192558 55.526345,36.9192558 C55.526345,36.9192558 52.8291748,33.3485647 49.268017,28.8231476 C47.2698803,26.1847194 44.0600349,24.7548118 40.7635719,25.0346255 C40.7635719,25.0346255 37.4354844,25.7113145 36.0983806,30.0639916 Z" id="Path" fill="#3F3D56"></path>
                    <circle id="Oval" fill="#A0616A" cx="42" cy="12" r="8"></circle>
                    <path d="M46.3484815,25.8705424 C48.0687087,26.8905106 49.0977521,28.7645467 49.6884637,30.6715462 C50.7820962,34.2021241 51.4403891,37.8524325 51.6487948,41.5418025 L52.2727238,52.5871295 L60,76.1057359 C53.3030241,81.757306 28.1300966,77.390175 28.1300966,77.390175 C28.1300966,77.390175 27.3573705,77.1333121 28.1300966,76.3626153 C28.9028228,75.5919184 29.6550781,76.2747187 28.8823612,75.5040402 C28.1096443,74.7333617 28.6423218,75.5919386 28.8999071,74.8212601 C29.1574923,74.0505816 28.8999071,74.5643973 28.6423311,74.3074812 C28.3847551,74.050565 30.6363513,71.7385663 30.6363513,71.7385663 L28.5757526,58.238683 L26,31.0083262 C29.0909212,27.1549741 35.3071438,24.8834514 35.3071438,24.8834514 L36.9133376,22 L44.944303,22.6407656 L46.3484815,25.8705424 Z" id="Path" fill="#3F3D56"></path>
                    <path d="M48.620486,7.6250034 C49.2378757,8.11122749 49.6952854,8.78967116 49.928312,9.5648101 C50.0178339,8.29806438 50.0235189,7.02626605 49.9453256,5.7586845 C49.851697,4.86795023 49.2577907,4.66759247 48.570089,4.43543349 C47.9490314,4.22568405 47.2466612,3.98875083 47.0576934,3.12405228 C44.5606447,0.559115199 40.2138174,0.688455523 37.2389465,1.5831451 C35.6020233,2.0754774 34.6601269,2.70802084 34.5758604,3.07857302 L34.5583885,3.15485258 L34.4919112,3.18994892 C33.2301202,3.85610376 32.9845029,5.95969276 33.0007335,7.60703898 C33.031473,10.7107673 34.0463944,14.2358104 34.6181477,14.5221686 C34.6484196,14.5373257 34.6560637,14.5313918 34.6691718,14.5198647 L34.6691718,14.5198647 C35.5300802,13.7934006 36.5804313,14.5750706 37.0420082,15 C37.6022667,11.030356 40.6553572,7.97656779 44.4396888,7.60062878 C45.0402508,7.53933968 45.6360278,7.43385488 46.2226748,7.28494368 C46.5202491,7.20365663 46.8261526,7.16126937 47.1335145,7.15873392 C47.6626266,7.15025062 48.1815228,7.31296084 48.620486,7.6250034 L48.620486,7.6250034 Z" id="Path" fill="#2F2E41"></path>
                    <path d="M38.2643445,64.9714627 L36.2336287,63.971256 C36.0087369,63.8171329 35.9353601,63.5277301 36.0612413,63.2913486 C36.1871224,63.0549672 36.4741897,62.9430989 36.7356616,63.0285315 L38.7663713,64.028744 C38.9912631,64.1828671 39.0646399,64.4722699 38.9387587,64.7086514 C38.8128776,64.9450328 38.5258103,65.0569011 38.2643384,64.9714685 L38.2643445,64.9714627 Z" id="Path" fill="#FFCCF9"></path>
                    <path d="M29.9786392,61.7322748 L26,47.0016177 L36.6320147,45 L36.0602724,55.1110154 L50.0298407,69.4162843 C52.0913413,69.3324693 53.8461555,70.894146 53.990507,72.9410337 C54.1348585,74.9879215 52.6164123,76.7779134 50.5633298,76.9810973 C48.5102474,77.1842813 46.6668815,75.7269921 46.4027998,73.6919535 L29.9786392,61.7322748 Z" id="Path" fill="#A0616A"></path>
                    <path d="M24.465754,29.8158069 C20.620886,32.6590302 25.5557853,48.5627019 25.5557853,48.5627019 C26.3198371,47.7772692 27.2077,59.3853855 28.141604,58.9901267 C30.7958387,57.866764 35.660714,53.9930118 37.5362117,54.308761 C38.6087812,54.4893418 37.485061,46.630571 37.485061,46.630571 C37.485061,46.630571 37.2783818,42.1245228 36.8899261,36.3318365 C36.7326255,32.9993052 34.7633154,29.9746896 31.6722614,28.3181515 C31.6722614,28.3181515 28.3106318,26.9726001 24.465754,29.8158069 Z" id="Path" fill="#3F3D56"></path>
                    <path d="M151,72 L5.17968591,71.8189742 C4.36021192,69.9223562 3.63264582,67.9800175 3,66 L147.539766,66.166946 C148.930851,67.930429 150.095001,69.8928827 151,72 Z" id="Path" fill="#3F3D56"></path>
                    <path d="M105,110.017153 C104.255009,110.356775 103.503339,110.684391 102.744991,111 C101.484517,110.325901 100.238616,109.620926 99,108.900515 L103.593807,107 L105,110.017153 Z" id="Path" fill="#FFB6B6"></path>
                    <path d="M139,85.0477604 C138.244688,86.0554046 137.46587,87.042896 136.663123,88.0102344 C135.92297,88.9024575 135.163177,89.7775812 134.383745,90.6356055 C134.061539,90.9910291 133.73565,91.3446206 133.402397,91.694548 C132.789285,92.3486007 132.16267,92.9916609 131.522554,93.6237286 C130.369977,93.9846484 128.035363,94.6203803 125.533202,95.2139744 C123.712277,95.6445132 121.802975,96.0530672 120.193786,96.3132226 C119.292935,96.474133 118.381692,96.5708682 117.467001,96.6026913 C116.380706,96.6118517 115.27784,96.5825384 114.171292,96.5239118 C112.922974,96.4579569 111.672814,96.3553604 110.437383,96.2234506 C107.224527,95.8881799 104.112937,95.366037 101.428499,94.8292375 C100.44531,94.635037 99.5210293,94.4371723 98.6704143,94.2448038 C97.0593835,93.883884 95.7116503,93.5467812 94.7358168,93.29029 C93.6366335,93.0044854 93.0106329,92.8194453 93.0106329,92.8194453 L90.2580718,97.4069745 L88.8293286,99.7868469 L87.7798572,101.536484 L87.5,102 C87.3821627,101.935877 87.2643273,101.869922 87.1464919,101.805799 C85.2858063,100.778787 83.3733755,99.8474761 81.4167458,99.0155411 C80.1315943,98.4769095 78.8298907,97.9914082 77.5152895,97.577358 L77.5134484,97.577358 C77.0108067,97.4197991 76.506324,97.2714006 76,97.1358266 C76.1583511,96.7126161 76.3185367,96.2863521 76.4805567,95.8570346 C76.7825001,95.0564154 77.0905905,94.248468 77.4048281,93.4331922 C78.0842228,91.6670759 78.7875528,89.8752922 79.5111357,88.092678 C80.1039951,86.6288458 80.7079015,85.1705098 81.3191726,83.7323267 C81.6008728,83.0691137 82.1734792,82.4865121 82.9743917,81.9753617 C83.35716,81.735178 83.75646,81.5221291 84.1693254,81.3377977 C86.4615829,80.2990081 89.8383126,79.6229705 93.5593335,79.1887675 C93.8668102,79.1539579 94.1761281,79.1191484 94.4872872,79.086171 C97.5675781,78.7637248 100.835669,78.5970055 103.892025,78.5200581 C105.422044,78.4815844 106.898668,78.4669278 108.272187,78.4650957 C108.715911,78.4650957 109.147361,78.4663171 109.566535,78.4687599 L109.568377,78.4687599 C110.700701,78.4742561 111.742808,78.4907448 112.659715,78.5090656 C112.838309,78.5127298 113.01138,78.518226 113.180768,78.5218902 L113.182609,78.5218902 C113.296762,78.5237223 113.409083,78.5273864 113.519545,78.5292185 C115.524588,78.5805168 116.754495,78.6428075 116.754495,78.6428075 L117.23136,74.9200202 L117.328942,74.1688673 L117.421001,73.4543559 L117.421001,73.4525238 L117.432048,73.3627519 L117.507536,73.3609198 L118.833185,73.3352707 L129.975994,73.1190852 L136.062929,73 L135.098151,77.1148525 L133.505532,83.9045423 C133.667521,84.9781414 139.05481,84.137211 139,85.0477604 Z" id="Path" fill="#2F2E41"></path>
                    <path d="M107,109.29005 C106.540815,109.518527 106.077911,109.743377 105.613149,109.960974 C104.852797,110.320009 104.085629,110.666351 103.311644,111 C102.025182,110.28737 100.753591,109.5421 99.4894372,108.780511 C97.4258915,107.536581 95.3827953,106.249132 93.334122,104.99251 C93.0273787,104.802112 92.7224945,104.615342 92.4157512,104.430384 L92.4138922,104.430384 C91.5698834,103.208214 90.7091431,101.935272 89.8409667,100.62425 C89.8279534,100.606117 89.8167991,100.587984 89.8056448,100.569842 C89.5825674,100.2362 89.3607207,99.900134 89.1401048,99.5616425 C87.7513943,97.4400719 86.3552383,95.2278358 85,92.9684537 L88.4318067,91.405382 L94.8120558,88.5004622 L95.9126135,88 L99.0767169,94.0763851 L101.898764,99.4963634 L102.527112,100.702213 L107,109.29005 Z" id="Path" fill="#2F2E41"></path>
                    <path d="M107.319515,79.4014488 L123.511976,63.685952 L128,50.8970146 L121.380027,48 C117.979721,51.2780586 114.304138,61.4881922 114.304138,61.4881922 L103.161431,75.7548857 C103.074602,75.7848142 102.988,75.8165921 102.902477,75.8546052 C101.517008,76.4694487 100.752249,77.9800821 101.072437,79.4694911 C101.392626,80.9589002 102.709453,82.0163011 104.223553,82 C105.737653,81.9833184 107.031432,80.8974831 107.319515,79.4014488 L107.319515,79.4014488 Z" id="Path" fill="#FFB8B8"></path>
                    <path d="M119,50.2989493 L127.309953,53 L127.34127,52.9946617 C130.434227,52.4642068 133.000722,47.292136 134.608982,43.0467302 C135.706996,40.141111 134.419396,36.8612243 131.662773,35.5418878 L131.662773,35.5418878 C129.657298,34.5988884 127.30288,34.9030306 125.589025,36.3264904 L121.32181,39.8964747 L119,50.2989493 Z" id="Path" fill="#FFCCF9"></path>
                    <path d="M139.260745,85 L139.309698,84.9353284 C141.924446,81.4878858 138.348224,72.9507253 137.807574,71.7125765 L140.238802,70.9966498 L139.815037,66.3947847 L139.610927,64.3427828 L141.501248,62.5581887 L141.507614,62.5126415 L142.80764,53.315354 L144.508647,47.2281088 C145.814001,42.542605 144.475245,37.5214826 141.006733,34.0938772 L137.529428,30.6617419 L133.363439,24.1792713 L126.378482,24 L123.866704,28.4357308 C119.046457,29.4136823 115.618503,33.6772603 115.721192,38.5668562 L115.957666,50.3756177 L113.451338,65.00667 L113.381026,67.6643449 L110.921062,70.2449804 L111.375857,72.8539354 L109.535761,73.5825952 L108.635313,77.289859 C108.291415,77.7175808 106.020739,80.5709176 106,81.3663642 C105.99698,81.4857872 106.082652,81.6034935 106.269618,81.7364446 C107.739405,82.7818381 115.954437,85.0470491 119.651729,83.6852213 C123.590016,82.2358335 139.025031,84.9579358 139.180531,84.9856236 L139.260745,85 Z" id="Path" fill="#FF4C4A"></path>
                    <circle id="Oval" fill="#FFB8B8" cx="128.5" cy="12.5" r="9.5"></circle>
                    <path d="M128.543482,21.9937156 C130.00558,22.0157733 131.466953,21.916982 132.911667,21.6984188 C134.343672,21.416733 137.547217,19.1458859 138.440259,17.7793926 L138.440259,17.7793926 C139.103746,16.7641019 139.528025,15.1786515 139.767168,14.0274824 C140.41848,10.9467834 139.688904,7.7434115 137.759572,5.21266822 C137.3929,4.68923454 136.886793,4.2713944 136.294787,4.00334572 C136.242318,3.98349886 136.188318,3.96591047 136.133757,3.95087403 C135.271119,3.73131903 134.496008,3.26737093 133.907938,2.61859504 C133.793901,2.4873723 133.670242,2.36426502 133.53792,2.25022867 C132.873255,1.70764732 132.085283,1.32492068 131.238419,1.13333589 C129.871479,0.779451821 127.893213,1.13072744 125.358711,2.17841868 C124.085369,2.70479984 122.692789,2.5143024 121.621498,2.28951226 C121.499214,2.26666593 121.373581,2.30829991 121.29147,2.39888145 C120.835682,2.81279086 120.234824,3.04447886 119.609662,3.04737878 C119.226749,3.0636438 118.825008,3.57650329 118.339416,4.24528861 C118.229235,4.39710216 118.100661,4.5742839 118.007922,4.68204901 L117.995471,4.47500766 L117.778902,4.70597899 C117.086879,5.4438278 116.834064,6.47326696 117.109103,7.43334025 C117.384142,8.39341354 118.148656,9.15015151 119.134579,9.43821623 C119.519761,9.53734754 119.914398,9.59818056 120.312355,9.61976909 C120.553403,9.6407461 120.80274,9.66244677 121.041682,9.70254881 C122.601718,10.0115665 123.879203,11.0906829 124.405883,12.5443541 C124.529973,12.879137 124.807813,13.1391542 125.15782,13.2480581 C125.507827,13.3569619 125.890276,13.3023918 126.19287,13.1003707 C126.69809,12.7198225 127.363867,12.6025507 127.975334,12.7864028 C128.235671,12.926437 128.438324,13.1487919 128.549316,13.416187 C128.684191,13.7140924 128.907745,13.9663837 129.191463,14.14088 C130.161874,14.6248497 130.228757,16.7688559 129.880234,18.5561453 C129.544283,20.2789343 128.880177,21.5252181 128.265294,21.5868276 C127.79193,21.6341954 127.737798,21.6667236 127.703525,21.7477042 L127.67291,21.8201978 L127.726085,21.8880067 C127.987522,21.9796917 128.266328,22.015748 128.543482,21.9937156 Z" id="Path" fill="#2F2E41"></path>
                    <path d="M122,47.0070773 L118.369949,40 C113.100941,40.3484736 102.643384,46.2469498 102.643384,46.2469498 L82.8573137,50.308615 C81.2367576,49.7054871 79.4029198,50.3169811 78.5096221,51.7583546 C77.6163244,53.199728 77.9219019,55.0541463 79.2340901,56.1548388 C80.5462783,57.2555314 82.4856019,57.2841859 83.8318693,56.2227734 L109.00093,54.4760281 L122,47.0070773 Z" id="Path" fill="#FFB8B8"></path>
                    <path d="M120.642615,48 L130.101237,41.0662387 L131.76735,35.1435531 C132.425803,32.7692823 131.661235,30.2321267 129.794915,28.5981874 L129.794915,28.5981874 C127.206139,26.3623177 123.304088,26.4865053 120.866804,28.8823357 C117.307378,32.3869387 113.247642,37.2761892 114.119712,40.6665071 L114.12854,40.700874 L120.642615,48 Z" id="Path" fill="#FF4C4A"></path>
                    <rect id="Rectangle" fill="#FFFFFF" x="84" y="67" width="25" height="3"></rect>
                    <rect id="Rectangle" fill="#FFFFFF" x="20" y="67" width="25" height="3"></rect>
                    <path d="M48,50.7884085 L48,67.2107196 C48.0003333,67.6464839 48.3410377,67.9996545 48.7614205,68 L72.2385795,68 C72.6589631,67.9996566 72.9996687,67.6464848 73,67.2107196 L73,50.7884085 C72.9990024,50.3530713 72.6585511,50.0005529 72.2385795,50 L48.7614205,50 C48.3414497,50.000555 48.0009996,50.3530722 48,50.7884085 Z" id="Path" fill="#3F3D56"></path>
                    <path d="M49,51.4011465 L49,66.5996881 C49.0003893,66.8206161 49.1831209,66.9996186 49.4086514,67 L72.5913486,67 C72.8168799,66.9996206 72.9996127,66.8206169 73,66.5996881 L73,51.4011465 C73,51.1799332 72.8171698,51.0004803 72.5913486,51 L49.4086514,51 C49.182831,51.0004823 49,51.1799341 49,51.4011465 Z" id="Path" fill="#FF4C4A"></path>
                    <path d="M48.10376,69.8762521 C48.1906819,69.9549093 48.3227312,70.0005047 48.462135,70 L73.5391298,70 C73.6780179,69.9998703 73.8094403,69.9546035 73.8969311,69.8767557 C73.9844218,69.7989079 74.0186736,69.6967604 73.9901827,69.5986563 L73.6009132,68.2642133 C73.5681331,68.1536447 73.4599851,68.0625836 73.3135969,68.0222914 C73.2614321,68.0075212 73.2058851,67.9999594 73.1498492,68 L48.8498611,68 C48.7938252,67.9999591 48.7382781,68.0075208 48.6861134,68.0222914 C48.5397215,68.0625794 48.4315718,68.1536426 48.398799,68.2642133 L48.0095295,69.5986563 C47.981477,69.6967071 48.0160859,69.7986623 48.10376,69.8762521 L48.10376,69.8762521 Z" id="Path" fill="#2F2E41"></path>
                    <rect id="Rectangle" fill="#3F3D56" transform="translate(72.5, 68.5) rotate(-180) translate(-72.5, -68.5)" x="72" y="68" width="1" height="1" rx="0.48819"></rect>
                    <rect id="Rectangle" fill="#3F3D56" transform="translate(70.5, 68.5) rotate(-180) translate(-70.5, -68.5)" x="70" y="68" width="1" height="1" rx="0.48819"></rect>
                    <rect id="Rectangle" fill="#3F3D56" transform="translate(68.5, 68.5) rotate(-180) translate(-68.5, -68.5)" x="68" y="68" width="1" height="1" rx="0.48819"></rect>
                    <rect id="Rectangle" fill="#3F3D56" transform="translate(67.5, 68.5) rotate(-180) translate(-67.5, -68.5)" x="67" y="68" width="1" height="1" rx="0.48819"></rect>
                    <rect id="Rectangle" fill="#3F3D56" transform="translate(65.5, 68.5) rotate(-180) translate(-65.5, -68.5)" x="65" y="68" width="1" height="1" rx="0.48819"></rect>
                    <rect id="Rectangle" fill="#3F3D56" transform="translate(64.5, 68.5) rotate(-180) translate(-64.5, -68.5)" x="64" y="68" width="1" height="1" rx="0.48819"></rect>
                    <rect id="Rectangle" fill="#3F3D56" transform="translate(62.5, 68.5) rotate(-180) translate(-62.5, -68.5)" x="62" y="68" width="1" height="1" rx="0.48819"></rect>
                    <rect id="Rectangle" fill="#3F3D56" transform="translate(61.5, 68.5) rotate(-180) translate(-61.5, -68.5)" x="61" y="68" width="1" height="1" rx="0.48819"></rect>
                    <rect id="Rectangle" fill="#3F3D56" transform="translate(60.5, 68.5) rotate(-180) translate(-60.5, -68.5)" x="60" y="68" width="1" height="1" rx="0.48819"></rect>
                    <rect id="Rectangle" fill="#3F3D56" transform="translate(58.5, 68.5) rotate(-180) translate(-58.5, -68.5)" x="58" y="68" width="1" height="1" rx="0.48819"></rect>
                    <rect id="Rectangle" fill="#3F3D56" transform="translate(56.5, 68.5) rotate(-180) translate(-56.5, -68.5)" x="56" y="68" width="1" height="1" rx="0.48819"></rect>
                    <rect id="Rectangle" fill="#3F3D56" transform="translate(55.5, 68.5) rotate(-180) translate(-55.5, -68.5)" x="55" y="68" width="1" height="1" rx="0.48819"></rect>
                    <rect id="Rectangle" fill="#3F3D56" transform="translate(53.5, 68.5) rotate(-180) translate(-53.5, -68.5)" x="53" y="68" width="1" height="1" rx="0.48819"></rect>
                    <rect id="Rectangle" fill="#3F3D56" transform="translate(52.5, 68.5) rotate(-180) translate(-52.5, -68.5)" x="52" y="68" width="1" height="1" rx="0.48819"></rect>
                    <rect id="Rectangle" fill="#3F3D56" transform="translate(50.5, 68.5) rotate(-180) translate(-50.5, -68.5)" x="50" y="68" width="1" height="1" rx="0.48819"></rect>
                    <rect id="Rectangle" fill="#3F3D56" transform="translate(48.5, 68.5) rotate(-180) translate(-48.5, -68.5)" x="48" y="68" width="1" height="1" rx="0.48819"></rect>
                    <rect id="Rectangle" fill="#3F3D56" transform="translate(72.5, 68.5) rotate(-180) translate(-72.5, -68.5)" x="72" y="68" width="1" height="1" rx="0.48819"></rect>
                    <rect id="Rectangle" fill="#3F3D56" transform="translate(70.5, 68.5) rotate(-180) translate(-70.5, -68.5)" x="70" y="68" width="1" height="1" rx="0.48819"></rect>
                    <rect id="Rectangle" fill="#3F3D56" transform="translate(68.5, 68.5) rotate(-180) translate(-68.5, -68.5)" x="68" y="68" width="1" height="1" rx="0.48819"></rect>
                    <rect id="Rectangle" fill="#3F3D56" transform="translate(67.5, 68.5) rotate(-180) translate(-67.5, -68.5)" x="67" y="68" width="1" height="1" rx="0.48819"></rect>
                    <rect id="Rectangle" fill="#3F3D56" transform="translate(65.5, 68.5) rotate(-180) translate(-65.5, -68.5)" x="65" y="68" width="1" height="1" rx="0.48819"></rect>
                    <rect id="Rectangle" fill="#3F3D56" transform="translate(64.5, 68.5) rotate(-180) translate(-64.5, -68.5)" x="64" y="68" width="1" height="1" rx="0.48819"></rect>
                    <rect id="Rectangle" fill="#3F3D56" transform="translate(62.5, 68.5) rotate(-180) translate(-62.5, -68.5)" x="62" y="68" width="1" height="1" rx="0.48819"></rect>
                    <rect id="Rectangle" fill="#3F3D56" transform="translate(61.5, 68.5) rotate(-180) translate(-61.5, -68.5)" x="61" y="68" width="1" height="1" rx="0.48819"></rect>
                    <rect id="Rectangle" fill="#3F3D56" transform="translate(60.5, 68.5) rotate(-180) translate(-60.5, -68.5)" x="60" y="68" width="1" height="1" rx="0.48819"></rect>
                    <rect id="Rectangle" fill="#3F3D56" transform="translate(58.5, 68.5) rotate(-180) translate(-58.5, -68.5)" x="58" y="68" width="1" height="1" rx="0.48819"></rect>
                    <rect id="Rectangle" fill="#3F3D56" transform="translate(56.5, 68.5) rotate(-180) translate(-56.5, -68.5)" x="56" y="68" width="1" height="1" rx="0.48819"></rect>
                    <rect id="Rectangle" fill="#3F3D56" transform="translate(55.5, 68.5) rotate(-180) translate(-55.5, -68.5)" x="55" y="68" width="1" height="1" rx="0.48819"></rect>
                    <rect id="Rectangle" fill="#3F3D56" transform="translate(53.5, 68.5) rotate(-180) translate(-53.5, -68.5)" x="53" y="68" width="1" height="1" rx="0.48819"></rect>
                    <rect id="Rectangle" fill="#3F3D56" transform="translate(52.5, 68.5) rotate(-180) translate(-52.5, -68.5)" x="52" y="68" width="1" height="1" rx="0.48819"></rect>
                    <rect id="Rectangle" fill="#3F3D56" transform="translate(50.5, 68.5) rotate(-180) translate(-50.5, -68.5)" x="50" y="68" width="1" height="1" rx="0.48819"></rect>
                    <rect id="Rectangle" fill="#3F3D56" transform="translate(48.5, 68.5) rotate(-180) translate(-48.5, -68.5)" x="48" y="68" width="1" height="1" rx="0.48819"></rect>
                    <rect id="Rectangle" fill="#3F3D56" transform="translate(62, 69.5) rotate(-180) translate(-62, -69.5)" x="59" y="69" width="6" height="1" rx="0.48819"></rect>
                </g>
            </g>
        </g>
    </g>
</svg>