<?xml version="1.0" encoding="UTF-8"?>
<svg width="110px" height="155px" viewBox="0 0 110 155" version="1.1" xmlns="http://www.w3.org/2000/svg" xmlns:xlink="http://www.w3.org/1999/xlink">
    <title>manager</title>
    <g id="UI-designs-1.1" stroke="none" stroke-width="1" fill="none" fill-rule="evenodd">
        <g id="13.New-interview---character-type" transform="translate(-533, -382)">
            <g id="Group" transform="translate(478, 362)">
                <g id="Group-4" transform="translate(35, 15)">
                    <g id="manager" transform="translate(22, 7.3324)">
                        <polygon id="Path-27" stroke="#242C45" stroke-width="3" fill="#FFFEFE" points="52.2899577 103.520038 45.9957962 116.592527 34.8599718 101.099206 43.8170479 98.1942085"></polygon>
                        <polygon id="Path-27" stroke="#242C45" stroke-width="3" fill="#FFFEFE" transform="translate(62.4574, 107.1513) scale(-1, 1) translate(-62.4574, -107.1513)" points="71.1724425 103.762121 65.6045303 115.866278 53.7424566 101.341289 62.6995327 98.4362917"></polygon>
                        <path d="M41.1541334,99.1625411 L41.1541334,149.924578 L0,149.919914 C0,134.801169 0,123.34732 0,115.558366 C0,107.769413 13.7180445,102.304138 41.1541334,99.1625411 Z" id="Path-28" stroke="#232C45" stroke-width="4" fill="#313C5C"></path>
                        <path d="M106.032414,99.4046242 L106.032414,149.980633 L64.8782809,149.976057 C64.8782809,135.14177 64.8782809,123.903424 64.8782809,116.261019 C64.8782809,108.618614 78.5963254,102.999816 106.032414,99.4046242 Z" id="Path-28" stroke="#242C45" stroke-width="3" fill="#313C5C" transform="translate(85.4553, 124.6926) scale(-1, 1) translate(-85.4553, -124.6926)"></path>
                        <path d="M44.0591311,80.1763064 C44.0591311,86.8624121 44.0591311,92.4649076 44.0591311,96.9837929 C44.0591311,103.762121 61.489117,105.21462 61.489117,96.9837929 C61.489117,91.4965751 61.489117,85.6865798 61.489117,79.5538069 L44.0591311,80.1763064 Z" id="Path" stroke="#242C45" stroke-width="3" fill="#FFEDC7"></path>
                        <path d="M25.6608126,45.1780014 C20.6577611,43.2413363 17.7527634,39.5293949 16.9458196,34.0421771 C15.7354039,25.8113504 15.2512377,25.8113504 18.1562353,19.2751057 C20.0929004,14.9176092 22.5944262,13.8685823 25.6608126,16.1280249 C25.6608126,9.67247454 28.3237271,5.39567244 33.6495561,3.29761858 C48.2854953,-2.46805441 67.1049694,0.0661448867 75.2878558,5.23428369 C79.8874354,8.13928134 80.9653977,9.31823979 83.0345162,11.7705284 C89.5707609,19.5171888 88.1708286,32.7136462 80.855768,43.9675857 C74.5616064,53.6509112 56.1632879,54.0543831 25.6608126,45.1780014 Z" id="Path-24" stroke="#313C5C" stroke-width="4" fill="#313C5C"></path>
                        <path d="M26.6291451,45.3227318 C55.5177329,43.6069223 71.49522,36.8529557 74.5616064,25.0608319 C77.6279928,13.2687081 71.3597195,4.96527675 55.7567866,0.150537795 C66.4450378,1.72933542 73.2781717,3.46001818 76.2561884,5.34258609 C80.855768,8.25023305 81.9337303,9.4302667 84.0028488,11.8847918 C90.5390935,19.638517 89.1391612,32.8470094 81.8241005,44.1112123 C75.5299389,53.8033688 57.1316205,54.2072087 26.6291451,45.3227318 Z" id="Path-24" stroke="#272F47" stroke-width="4" fill="#272F47" stroke-linecap="round" stroke-linejoin="round"></path>
                        <path d="M25.1766463,19.0330225 C25.1766463,32.0413346 25.1766463,41.1962347 25.1766463,46.4977227 C25.1766463,54.3869024 25.1766463,57.9139592 25.1766463,66.5395309 C25.1766463,92.5196527 80.6184344,92.4215142 80.6184344,68.5936144 C80.6184344,44.7657146 80.6184344,33.3839469 80.6184344,27.9404929 C57.6980643,36.0231974 39.2174683,33.0540406 25.1766463,19.0330225 Z" id="Path-20" stroke="#242C45" stroke-width="3" fill="#FFEAC7"></path>
                        <path d="M48.4207405,55.8296595 C48.4207405,57.0630888 48.3123876,57.0400751 49.2079578,58.0084077 C51.1162177,60.071708 54.7604928,60.4292391 56.8077662,58.0084077 C57.4949212,57.1958702 57.3764422,57.4162025 57.3764422,55.8296595" id="Path-21" stroke="#242C45" stroke-width="3" stroke-linecap="round"></path>
                        <path d="M58.5841193,39.3680061 C58.5841193,39.3680061 64.3987696,44.6938351 71.17477,39.3680061" id="Path-22" stroke="#313C5C" stroke-width="3" stroke-linecap="round" transform="translate(64.8794, 40.5515) rotate(180) translate(-64.8794, -40.5515)"></path>
                        <path d="M34.8599718,39.3680061 C34.8599718,39.3680061 40.6746221,44.6938351 47.4506225,39.3680061" id="Path-22" stroke="#313C5C" stroke-width="3" stroke-linecap="round" transform="translate(41.1553, 40.5515) rotate(180) translate(-41.1553, -40.5515)"></path>
                        <circle id="Oval-10" fill="#313C5C" cx="43.0907985" cy="47.5988328" r="1.9366651"></circle>
                        <path d="M24.9431227,41.7888375 C24.9431227,41.7888375 24.9431227,46.8732341 24.9431227,57.0420273 C19.9400711,57.0407259 17.4385454,55.4261876 17.4385454,52.1984124 C17.4385454,47.3567496 17.2721284,46.0257594 18.4068779,44.451752 C19.5416275,42.8777446 21.0697925,41.7888375 24.9431227,41.7888375 Z" id="Path-25" stroke="#242C45" stroke-width="3" fill="#FFEAC7"></path>
                        <path d="M88.3689047,41.7888375 C88.3689047,41.7888375 88.3689047,46.8732341 88.3689047,57.0420273 C83.3658532,57.0407259 80.8643275,55.4261876 80.8643275,52.1984124 C80.8643275,47.3567496 80.6979105,46.0257594 81.83266,44.451752 C82.9674095,42.8777446 84.4955745,41.7888375 88.3689047,41.7888375 Z" id="Path-25" stroke="#242C45" stroke-width="3" fill="#FFEAC7" transform="translate(84.6123, 49.4154) scale(-1, 1) translate(-84.6123, -49.4154)"></path>
                        <path d="M25.1766463,49.777581 C22.9172037,49.777581 21.7874824,51.0686911 21.7874824,53.6509112 C22.2716487,75.6804767 18.6404016,82.4588046 32.9233067,89.2371324 C47.2062118,96.0154603 58.3420362,96.0154603 72.8670244,90.4475481 C87.3920127,84.879636 83.5186825,76.164643 84.487015,53.6509112 C84.487015,51.3914686 83.2765994,50.2617473 80.855768,50.2617473 C80.855768,55.5875763 80.855768,58.6539627 80.855768,59.4609065 C77.9507703,68.9021489 70.4461931,69.6283983 65.3624472,67.9338163 C62.4574495,59.4609065 43.8170479,59.4609065 40.427884,67.9338163 C35.5862212,67.9338163 30.0183091,68.6600657 25.1766463,59.4609065 C25.1766463,57.0400751 25.1766463,53.8123 25.1766463,49.777581 Z" id="Path-33" stroke="#242C45" stroke-width="3" fill="#313C5C"></path>
                        <path d="M46.9641287,67.9338163 C46.9641287,67.9338163 52.778779,73.2596454 59.5547794,67.9338163" id="Path-22" stroke="#FFEAC7" stroke-width="3" stroke-linecap="round"></path>
                        <line x1="50.8374589" y1="74.9542273" x2="55.4434047" y2="74.9542273" id="Path-23" stroke="#FFEAC7" stroke-width="3" stroke-linecap="round"></line>
                        <circle id="Oval-11" fill="#EDC9BC" cx="68.0253617" cy="58.9767402" r="3.14708079"></circle>
                        <circle id="Oval-11" fill="#EDC9BC" cx="38.2491357" cy="58.9767402" r="3.14708079"></circle>
                        <polygon id="Path-30" stroke="#242C45" stroke-width="3" fill="#FF4C4A" points="52.5320409 103.762121 48.6587107 111.750864 51.079542 116.350444 44.7853805 150 61.0049507 150 54.7107891 116.108361 56.6474542 111.266698"></polygon>
                        <polyline id="Path-32" stroke="#242C45" stroke-width="3" stroke-linecap="round" stroke-linejoin="round" transform="translate(75.4089, 124.5813) scale(-1, 1) translate(-75.4089, -124.5813)" points="80.6136848 143.463755 70.2041099 122.160439 78.6770197 113.445446 74.3195233 105.698786"></polyline>
                        <path d="M25.9028957,20.9696876 C37.6842751,36.3016197 55.5984273,39.6100892 79.6453523,30.8950963 C79.6453523,29.9267637 79.6453523,30.4925966 79.6453523,29.4425975 C79.6453523,27.9926803 69.4778605,34.7684265 51.8057915,32.8317614 C40.3471896,30.8950963 31.712891,26.9410717 25.9028957,20.9696876 Z" id="Path-31" fill="#313C5C" opacity="0.464390851"></path>
                        <circle id="Oval-10" fill="#313C5C" cx="62.9416158" cy="47.5988328" r="1.9366651"></circle>
                        <polyline id="Path-32" stroke="#232C45" stroke-width="3" stroke-linecap="round" stroke-linejoin="round" points="35.102055 142.737506 24.69248 121.43419 33.1653899 112.719197 28.8078934 104.972536"></polyline>
                    </g>
                </g>
            </g>
        </g>
    </g>
</svg>