<?xml version="1.0" encoding="UTF-8"?>
<svg width="24px" height="24px" viewBox="0 0 24 24" version="1.1" xmlns="http://www.w3.org/2000/svg" xmlns:xlink="http://www.w3.org/1999/xlink">
    <title>eloque/ elements/ icons/ tokens</title>
    <defs>
        <path d="M12,0 C5.385,0 0,5.385 0,12 C0,18.615 5.385,24 12,24 C18.615,24 24,18.615 24,12 C24,5.385 18.615,0 12,0 Z M18.36,13.905 L16.635,14.85 C15.885,15.255 15.27,15.87 14.85,16.635 L13.905,18.36 C13.515,19.05 12.795,19.485 12,19.485 C11.205,19.485 10.485,19.05 10.095,18.36 L9.15,16.635 C8.73,15.87 8.115,15.255 7.365,14.85 L5.64,13.905 C4.935,13.53 4.5,12.795 4.5,12 C4.5,11.205 4.935,10.47 5.64,10.095 L7.365,9.15 C8.115,8.745 8.73,8.13 9.15,7.365 L10.095,5.64 C10.485,4.95 11.205,4.515 12,4.515 C12.795,4.515 13.515,4.95 13.905,5.64 L14.85,7.365 C15.27,8.115 15.885,8.745 16.635,9.15 L18.36,10.095 C19.065,10.47 19.5,11.205 19.5,12 C19.5,12.795 19.065,13.53 18.36,13.905 Z" id="path-1"></path>
    </defs>
    <g id="UI-designs-1.1" stroke="none" stroke-width="1" fill="none" fill-rule="evenodd">
        <g id="13.-home" transform="translate(-1225, -21)">
            <g id="Group-4-Copy-8" transform="translate(1219, 15)">
                <g id="eloque/-elements/-icons/-tokens" transform="translate(6, 6)">
                    <g id="Group" transform="translate(21.12, 0)"></g>
                    <g id="eloque/-variables/-colors/-black" transform="translate(0, 0)">
                        <mask id="mask-2" fill="white">
                            <use xlink:href="#path-1"></use>
                        </mask>
                        <use id="Mask" fill="#000000" fill-rule="nonzero" xlink:href="#path-1"></use>
                        <g mask="url(#mask-2)" fill="#F7B500" id="eloque/-variables/-colors/-white">
                            <rect x="0" y="0" width="24" height="24"></rect>
                        </g>
                    </g>
                </g>
            </g>
        </g>
    </g>
</svg>